<?xml version="1.0" encoding="iso-8859-1"?>
<!-- Generator: Adobe Illustrator 17.1.0, SVG Export Plug-In . SVG Version: 6.00 Build 0)  -->
<!DOCTYPE svg PUBLIC "-//W3C//DTD SVG 1.1//EN" "http://www.w3.org/Graphics/SVG/1.1/DTD/svg11.dtd">
<svg version="1.1" id="Capa_1" xmlns="http://www.w3.org/2000/svg" xmlns:xlink="http://www.w3.org/1999/xlink" x="0px" y="0px"
	 viewBox="0 0 511 511" style="enable-background:new 0 0 511 511;" xml:space="preserve">
<g>
	<path d="M462.102,195.941c-1.309-2.427-3.844-3.941-6.602-3.941H375V39.5C375,17.72,357.28,0,335.5,0h-160
		C153.72,0,136,17.72,136,39.5V192H55.5c-2.758,0-5.293,1.514-6.602,3.941c-1.309,2.427-1.18,5.377,0.336,7.681l200,304
		c1.387,2.108,3.742,3.378,6.266,3.378s4.878-1.27,6.266-3.378l200-304C463.281,201.318,463.411,198.368,462.102,195.941z
		 M255.5,489.854L69.412,207H143.5c4.142,0,7.5-3.358,7.5-7.5v-160c0-13.509,10.991-24.5,24.5-24.5h160
		c13.509,0,24.5,10.991,24.5,24.5v160c0,4.142,3.358,7.5,7.5,7.5h74.088L255.5,489.854z"/>
	<path d="M335.5,80c-4.142,0-7.5,3.358-7.5,7.5v72c0,4.142,3.358,7.5,7.5,7.5s7.5-3.358,7.5-7.5v-72C343,83.358,339.642,80,335.5,80
		z"/>
	<path d="M335.5,32c-4.142,0-7.5,3.358-7.5,7.5v16c0,4.142,3.358,7.5,7.5,7.5s7.5-3.358,7.5-7.5v-16C343,35.358,339.642,32,335.5,32
		z"/>
	<path d="M201.927,350.2c-2.276-3.46-6.927-4.42-10.388-2.144s-4.42,6.927-2.144,10.388l56.038,85.178
		c1.441,2.19,3.833,3.379,6.272,3.379c1.415,0,2.845-0.4,4.115-1.235c3.46-2.276,4.42-6.927,2.144-10.388L201.927,350.2z"/>
	<path d="M173.739,307.355c-2.276-3.46-6.927-4.419-10.388-2.144c-3.46,2.277-4.42,6.927-2.144,10.388l10.524,15.997
		c1.441,2.19,3.833,3.378,6.272,3.378c1.415,0,2.845-0.4,4.115-1.235c3.46-2.277,4.42-6.928,2.144-10.388L173.739,307.355z"/>
</g>
<g>
</g>
<g>
</g>
<g>
</g>
<g>
</g>
<g>
</g>
<g>
</g>
<g>
</g>
<g>
</g>
<g>
</g>
<g>
</g>
<g>
</g>
<g>
</g>
<g>
</g>
<g>
</g>
<g>
</g>
</svg>
