<?xml version="1.0" encoding="iso-8859-1"?>
<!-- Generator: Adobe Illustrator 17.1.0, SVG Export Plug-In . SVG Version: 6.00 Build 0)  -->
<!DOCTYPE svg PUBLIC "-//W3C//DTD SVG 1.1//EN" "http://www.w3.org/Graphics/SVG/1.1/DTD/svg11.dtd">
<svg version="1.1" id="Capa_1" xmlns="http://www.w3.org/2000/svg" xmlns:xlink="http://www.w3.org/1999/xlink" x="0px" y="0px"
	 viewBox="0 0 511 511" style="enable-background:new 0 0 511 511;" xml:space="preserve">
<g>
	<path d="M461.766,307.378l-200-304C260.378,1.27,258.024,0,255.5,0s-4.878,1.27-6.266,3.378l-200,304
		c-1.516,2.304-1.645,5.254-0.336,7.681C50.207,317.486,52.742,319,55.5,319H136v152.5c0,21.78,17.72,39.5,39.5,39.5h160
		c21.78,0,39.5-17.72,39.5-39.5V319h80.5c2.758,0,5.293-1.514,6.602-3.941C463.411,312.632,463.281,309.682,461.766,307.378z
		 M367.5,304c-4.142,0-7.5,3.358-7.5,7.5v160c0,13.509-10.991,24.5-24.5,24.5h-160c-13.509,0-24.5-10.991-24.5-24.5v-160
		c0-4.142-3.358-7.5-7.5-7.5H69.412L255.5,21.146L441.588,304H367.5z"/>
	<path d="M175.5,392c-4.142,0-7.5,3.358-7.5,7.5v72c0,4.142,3.358,7.5,7.5,7.5s7.5-3.358,7.5-7.5v-72
		C183,395.358,179.642,392,175.5,392z"/>
	<path d="M175.5,344c-4.142,0-7.5,3.358-7.5,7.5v16c0,4.142,3.358,7.5,7.5,7.5s7.5-3.358,7.5-7.5v-16
		C183,347.358,179.642,344,175.5,344z"/>
	<path d="M253.035,75.622l10.524,15.996c1.441,2.19,3.833,3.379,6.272,3.379c1.415,0,2.845-0.399,4.115-1.235
		c3.46-2.276,4.42-6.927,2.144-10.388l-10.524-15.996c-2.276-3.46-6.927-4.42-10.388-2.144S250.759,72.162,253.035,75.622z"/>
	<path d="M337.261,203.645c1.441,2.19,3.833,3.378,6.272,3.378c1.415,0,2.845-0.399,4.115-1.235c3.46-2.277,4.42-6.927,2.144-10.388
		l-56.038-85.178c-2.277-3.46-6.927-4.419-10.388-2.144c-3.46,2.277-4.42,6.927-2.144,10.388L337.261,203.645z"/>
</g>
<g>
</g>
<g>
</g>
<g>
</g>
<g>
</g>
<g>
</g>
<g>
</g>
<g>
</g>
<g>
</g>
<g>
</g>
<g>
</g>
<g>
</g>
<g>
</g>
<g>
</g>
<g>
</g>
<g>
</g>
</svg>
